<?xml version="1.0" encoding="UTF-8" standalone="no" ?>
<!DOCTYPE svg PUBLIC "-//W3C//DTD SVG 1.1//EN" "http://www.w3.org/Graphics/SVG/1.1/DTD/svg11.dtd">
<svg xmlns="http://www.w3.org/2000/svg" xmlns:xlink="http://www.w3.org/1999/xlink" version="1.1" width="1024" height="1024" viewBox="0 0 1024 1024" xml:space="preserve">
<desc>Created with Fabric.js 5.3.0</desc>
<defs>
</defs>
<g transform="matrix(2.0260958959 0 0 2.0260958959 512 715.3423675175)" id="TUyDyrivQShQs7X_Cx32r"  >
<path style="stroke: rgb(0,0,0); stroke-width: 0; stroke-dasharray: none; stroke-linecap: butt; stroke-dashoffset: 0; stroke-linejoin: miter; stroke-miterlimit: 4; fill: rgb(7,89,133); fill-rule: nonzero; opacity: 1;"  transform=" translate(0, 0)" d="M 194.63431 52.1015 L 194.63431 52.75357 L 194.63431 52.75357 C 194.63431 105.6935 151.83693 148.67251000000002 98.89748 148.89672000000002 L -68.18581 149.60434 L -68.18581 149.60434 C -129.27921 149.86308 -181.46551 105.60201 -191.1832 45.285880000000006 C -192.96494 34.22693000000001 -192.99976 29.451040000000006 -194.20614 11.476640000000003 C -194.42853 8.163190000000004 -194.64077 6.759420000000003 -194.63416 4.429630000000003 L -194.63416 4.429630000000003 C -194.39700000000002 -79.18867999999999 -126.91647 -147.04593 -43.30078 -147.7486 L 177.65682999999999 -149.60545000000002 L 177.71686 -148.12312000000003 L 177.71686 -148.12312000000003 C 178.73887 -122.88475000000003 169.42702 -98.32058000000004 151.93124 -80.10197000000002 C 134.43545 -61.88337000000003 110.26817 -51.58525000000002 85.00911 -51.58525000000002 L -41.87541999999999 -51.58525000000002 L -41.87541999999999 -51.58525000000002 C -51.41383999999999 -51.58525000000002 -60.35967999999999 -46.95861000000002 -65.87227999999999 -39.17447000000002 L -65.87227999999999 -39.17447000000002 L -65.87227999999999 -39.17447000000002 C -78.34037 -21.56872000000002 -79.92805999999999 1.5273299999999779 -69.98640999999999 20.673589999999976 C -60.04476999999999 39.819849999999974 -40.23979999999999 51.80781999999998 -18.666419999999995 51.737629999999974 L 194.63431 51.04366999999998 z" stroke-linecap="round" />
</g>
<g transform="matrix(2.0260958959 0 0 2.0260958959 512 284.2979202692)" id="cdwWx2xa58Wrls5Hql5dK"  >
<path style="stroke: rgb(0,0,0); stroke-width: 0; stroke-dasharray: none; stroke-linecap: butt; stroke-dashoffset: 0; stroke-linejoin: miter; stroke-miterlimit: 4; fill: rgb(3,105,161); fill-rule: nonzero; opacity: 1;"  transform=" translate(0, 0)" d="M -199.18188 137.58248 L -184.38987 113.09434 L -184.38987 113.09434 C -160.82399 74.08107000000001 -121.36701 47.33301 -76.40081 39.88808 L -68.51521000000001 38.582480000000004 L -69.32466000000001 24.457520000000002 L -69.32466000000001 24.457520000000002 C -70.32542000000001 6.994190000000003 -64.08647 -10.109919999999995 -52.076800000000006 -22.82752 C -40.067130000000006 -35.54512 -23.347990000000006 -42.752430000000004 -5.856000000000009 -42.752430000000004 L 12.332249999999991 -42.752430000000004 L 106.76696999999999 -41.16946 L 106.76696999999999 -41.16946 C 131.48223 -40.75517 155.32860999999997 -50.28327 172.95326999999997 -67.61496 C 190.57791999999998 -84.94664999999999 200.50435 -108.62998999999999 200.50435 -133.34873 L 200.50435 -137.57826999999997 L 200.50435 -137.57826999999997 C 153.96616999999998 -137.58289999999997 57.16739999999999 -137.58307999999997 -13.431400000000025 -137.58177999999998 L -13.431400000000025 -137.58177999999998 C -63.541310000000024 -137.58085999999997 -111.55614000000003 -117.47674999999998 -146.71751000000003 -81.77406999999998 C -181.87888000000004 -46.07138999999998 -201.24713000000003 2.2449600000000203 -200.48254000000003 52.34904000000002 z" stroke-linecap="round" />
</g>
</svg>